<svg id="visual" viewBox="0 0 900 450" width="900" height="450" xmlns="http://www.w3.org/2000/svg" xmlns:xlink="http://www.w3.org/1999/xlink" version="1.1"><rect x="0" y="0" width="900" height="450" fill="#131720"></rect><path d="M0 307L4.8 301C9.7 295 19.3 283 29 286.8C38.7 290.7 48.3 310.3 58 302.5C67.7 294.7 77.3 259.3 87 262C96.7 264.7 106.3 305.3 116 309.7C125.7 314 135.3 282 145 288.7C154.7 295.3 164.3 340.7 174 362.5C183.7 384.3 193.3 382.7 203 379.7C212.7 376.7 222.3 372.3 232 363.7C241.7 355 251.3 342 261 320C270.7 298 280.3 267 290 269.2C299.7 271.3 309.3 306.7 319 319.2C328.7 331.7 338.3 321.3 348 321C357.7 320.7 367.3 330.3 377 338.5C386.7 346.7 396.3 353.3 406 339.5C415.7 325.7 425.3 291.3 435.2 303.7C445 316 455 375 464.8 383.5C474.7 392 484.3 350 494 333.5C503.7 317 513.3 326 523 318.5C532.7 311 542.3 287 552 293C561.7 299 571.3 335 581 344.8C590.7 354.7 600.3 338.3 610 334C619.7 329.7 629.3 337.3 639 339.8C648.7 342.3 658.3 339.7 668 350.7C677.7 361.7 687.3 386.3 697 383C706.7 379.7 716.3 348.3 726 326.5C735.7 304.7 745.3 292.3 755 301.7C764.7 311 774.3 342 784 335.8C793.7 329.7 803.3 286.3 813 288.5C822.7 290.7 832.3 338.3 842 350.7C851.7 363 861.3 340 871 316.7C880.7 293.3 890.3 269.7 895.2 257.8L900 246L900 451L895.2 451C890.3 451 880.7 451 871 451C861.3 451 851.7 451 842 451C832.3 451 822.7 451 813 451C803.3 451 793.7 451 784 451C774.3 451 764.7 451 755 451C745.3 451 735.7 451 726 451C716.3 451 706.7 451 697 451C687.3 451 677.7 451 668 451C658.3 451 648.7 451 639 451C629.3 451 619.7 451 610 451C600.3 451 590.7 451 581 451C571.3 451 561.7 451 552 451C542.3 451 532.7 451 523 451C513.3 451 503.7 451 494 451C484.3 451 474.7 451 464.8 451C455 451 445 451 435.2 451C425.3 451 415.7 451 406 451C396.3 451 386.7 451 377 451C367.3 451 357.7 451 348 451C338.3 451 328.7 451 319 451C309.3 451 299.7 451 290 451C280.3 451 270.7 451 261 451C251.3 451 241.7 451 232 451C222.3 451 212.7 451 203 451C193.3 451 183.7 451 174 451C164.3 451 154.7 451 145 451C135.3 451 125.7 451 116 451C106.3 451 96.7 451 87 451C77.3 451 67.7 451 58 451C48.3 451 38.7 451 29 451C19.3 451 9.7 451 4.8 451L0 451Z" fill="#000000" stroke-linecap="round" stroke-linejoin="miter"></path></svg>