<svg id="visual" viewBox="0 0 900 600" width="900" height="600" xmlns="http://www.w3.org/2000/svg" xmlns:xlink="http://www.w3.org/1999/xlink" version="1.1"><rect x="0" y="0" width="900" height="600" fill="#000000"></rect><path d="M0 422L4.8 384.3C9.7 346.7 19.3 271.3 29 276.3C38.7 281.3 48.3 366.7 58 347C67.7 327.3 77.3 202.7 87 199C96.7 195.3 106.3 312.7 116 339.5C125.7 366.3 135.3 302.7 145 264.3C154.7 226 164.3 213 174 189.5C183.7 166 193.3 132 203 106.7C212.7 81.3 222.3 64.7 232 139.3C241.7 214 251.3 380 261 436.7C270.7 493.3 280.3 440.7 290 437.5C299.7 434.3 309.3 480.7 319 456.2C328.7 431.7 338.3 336.3 348 328.8C357.7 321.3 367.3 401.7 377 441.8C386.7 482 396.3 482 406 490.3C415.7 498.7 425.3 515.3 435.2 496.7C445 478 455 424 464.8 378.5C474.7 333 484.3 296 494 294C503.7 292 513.3 325 523 371.5C532.7 418 542.3 478 552 422.5C561.7 367 571.3 196 581 160.7C590.7 125.3 600.3 225.7 610 308.3C619.7 391 629.3 456 639 409C648.7 362 658.3 203 668 140C677.7 77 687.3 110 697 134C706.7 158 716.3 173 726 219.7C735.7 266.3 745.3 344.7 755 391C764.7 437.3 774.3 451.7 784 456.8C793.7 462 803.3 458 813 402.7C822.7 347.3 832.3 240.7 842 199.5C851.7 158.3 861.3 182.7 871 211.2C880.7 239.7 890.3 272.3 895.2 288.7L900 305L900 601L895.2 601C890.3 601 880.7 601 871 601C861.3 601 851.7 601 842 601C832.3 601 822.7 601 813 601C803.3 601 793.7 601 784 601C774.3 601 764.7 601 755 601C745.3 601 735.7 601 726 601C716.3 601 706.7 601 697 601C687.3 601 677.7 601 668 601C658.3 601 648.7 601 639 601C629.3 601 619.7 601 610 601C600.3 601 590.7 601 581 601C571.3 601 561.7 601 552 601C542.3 601 532.7 601 523 601C513.3 601 503.7 601 494 601C484.3 601 474.7 601 464.8 601C455 601 445 601 435.2 601C425.3 601 415.7 601 406 601C396.3 601 386.7 601 377 601C367.3 601 357.7 601 348 601C338.3 601 328.7 601 319 601C309.3 601 299.7 601 290 601C280.3 601 270.7 601 261 601C251.3 601 241.7 601 232 601C222.3 601 212.7 601 203 601C193.3 601 183.7 601 174 601C164.3 601 154.7 601 145 601C135.3 601 125.7 601 116 601C106.3 601 96.7 601 87 601C77.3 601 67.7 601 58 601C48.3 601 38.7 601 29 601C19.3 601 9.7 601 4.8 601L0 601Z" fill="#1e0101" stroke-linecap="round" stroke-linejoin="miter"></path></svg>