<svg xmlns="http://www.w3.org/2000/svg" width="800" height="757" viewBox="0 0 800 757" fill="none">
  <path d="M777.753 504.206C746.924 492.597 725.482 483.288 713.45 476.191C691.626 464.097 677.224 440.226 670.279 404.535C664.524 374.882 668.379 347.076 681.879 321.268C695.365 295.394 716.309 277.815 744.659 268.556L743.424 262.191C764.724 255.435 782.888 249.418 797.909 244.124V240.535L700.95 266.665C696.829 268.1 687.232 267.144 672.15 263.803C649.785 258.726 629.715 246.765 611.938 227.909C594.135 209.109 583.012 188.188 578.538 165.185C572.876 136.109 577.615 110.421 592.732 87.9882L588.565 85.9794C600.521 65.6529 610.753 48.15 619.265 33.4441H613.321C602.129 50.4324 592.938 64.6706 585.732 76.1588C575.971 90.6176 568.721 101.771 563.974 109.603C552.259 123.797 532.829 133.562 505.591 138.862C454.159 148.868 411.224 134.912 376.876 96.9647C367.856 86.2059 362.497 78.1176 360.841 72.7647C354.668 42.7471 349.403 18.4912 345.074 0H340.771C343.424 19.2176 345.871 34.5618 348.109 46.0382L343.562 46.9118C348.826 80.4529 342.221 110.971 323.691 138.424C305.156 165.874 279.247 182.868 245.979 189.335C213.903 195.574 183.956 188.509 156.141 168.165L155.959 167.247L153.615 169.609C131.424 153.668 113.009 140.565 98.3824 130.309H91.6412C106.221 141.753 120.897 153.176 135.665 164.609C168.288 190.294 187.024 215.574 191.847 240.371C198.312 273.65 191.694 305.065 172.035 334.656C152.356 364.232 126.159 382.215 93.4676 388.562C88.6441 389.509 83.4294 390.182 77.8706 390.638L75.7176 389.179C74.9206 391.832 74.2765 393.238 73.6765 393.359L0 403.388V409.535C26.4147 406.959 48.4206 404.562 66.0118 402.365L99.2235 398.762C124.244 401.4 145.471 412.053 162.9 430.626C180.312 449.224 191.497 471.244 196.435 496.665C203.382 532.353 198.879 560.853 182.941 582.191C169.929 596.035 159.709 606.476 152.285 613.559C138.3 626.697 124.465 639.779 110.829 652.832H123.353C138.271 638.491 150.876 626.085 161.171 615.609L162.271 616.347C180.591 600.844 199.771 591.171 219.735 587.282C252.991 580.821 283.974 587.468 312.647 607.356C341.329 627.224 358.9 653.797 365.365 687.071C367.368 697.359 366.776 716.956 363.626 745.815L362.341 756.838H366.559C369.729 736.562 372.132 719.671 373.768 706.159C386.7 662.826 417.691 636.382 466.682 626.853C496.953 620.971 522.924 623.797 544.632 635.247C560.779 644.003 577.1 660.041 593.541 683.224C598.753 691.006 603.921 698.75 609.038 706.453H615.365L611.947 700.371C596.609 673.209 588.309 656.282 587.012 649.641C580.185 614.526 585.7 582.212 603.494 552.694C621.303 523.188 647.45 505.053 681.935 498.347C700.682 494.7 722.106 496.509 746.118 503.759L747.962 498.674C768.55 506.206 785.897 512.503 800 517.568V512.824C793.176 510.088 785.753 507.218 777.753 504.206ZM699.812 275.374C697.4 275.841 701.512 275.991 712.135 275.806C667.974 306.994 651.241 350.156 661.932 405.171C666.532 428.818 676.876 449.726 692.976 467.918L662.4 455.982L662.053 454.165C630.197 442.15 611.044 419.494 604.565 386.212C593.035 326.888 624.788 289.959 699.812 275.374ZM261.976 450.924C255.753 418.876 238.694 397.365 210.8 386.45C256.112 377.035 282.6 392.3 290.359 432.224C294.832 455.232 288.344 475.015 270.832 491.6L272.091 493.229L256.253 508.582C263.726 488.903 265.624 469.679 261.976 450.924ZM259.647 274.285C258.238 267.009 255.874 259.629 252.521 252.129C272.291 266.474 283.688 281.544 286.747 297.294C290.394 316.024 286.247 333.326 274.215 349.165C262.232 365.003 246.874 373.191 228.126 373.688L227.571 375.668L208.162 377.574C227.538 367.5 242.026 353.065 251.541 334.256C261.056 315.462 263.768 295.453 259.647 274.285ZM529.309 212.441C533.421 233.624 543.338 251.476 559.047 266.006C574.747 280.526 593.291 289.474 614.659 292.882L562.153 308.744C549.694 312.409 537.129 308.382 524.529 296.738C511.876 285.059 504.329 272.874 501.844 260.115C498.906 245.018 501.421 230.444 509.359 216.326L509.176 215.4L527.818 185.4C526.803 193.138 527.303 202.156 529.309 212.441ZM537.144 378.565C539.747 391.932 545.024 403.129 553.082 412.238L516.532 398.585L518.359 393.535L517.45 393.712C505.265 389.182 498.006 380.853 495.656 368.762C490.95 344.559 509.15 328.438 550.297 320.438L553.95 319.724C538.265 335.991 532.679 355.612 537.144 378.565ZM343.691 401.121C341.1 387.812 335.109 378.003 325.718 371.665L356.753 366.559L358.365 370.024L359.438 370.762C367.429 369.797 372.35 374.209 374.247 383.906C375.182 388.738 371.509 395.709 363.262 404.868C356.197 410.638 349.468 416.344 343.026 421.985C344.753 414.753 344.988 407.794 343.691 401.121ZM295.662 430.274C291.068 406.656 278.715 389.906 258.559 380.006L261.282 379.482C280.659 375.715 298.109 373.585 313.709 373.047C327.721 380.376 335.95 390.388 338.421 403.088C340.65 414.579 335.621 427.497 323.341 441.812C312.735 452.065 302.235 462.565 291.776 473.412C297.035 458.571 298.362 444.188 295.662 430.274ZM294.929 295.697C294.341 292.682 292.679 287.335 289.924 279.712C307.506 292.603 320.674 302.291 329.485 308.744L331.976 316.744C333.968 327.035 332.129 336.829 326.391 346.103C320.671 355.382 312.935 360.944 303.262 362.826L298.559 362.794L298.526 367.515L261.5 370.947C290.165 353.465 301.274 328.329 294.929 295.697ZM488.212 369.271C489.865 377.744 493.515 385.203 499.162 391.632L498.244 391.809C489.565 389.1 481.103 386.071 472.906 382.621C461.926 377.844 455.982 373.032 455.047 368.2C453.394 359.703 456.335 353.821 463.838 350.468C463.724 349.853 463.547 348.988 463.306 347.724L462.774 345.021L495.094 336.829C488.147 346.321 485.859 357.153 488.212 369.271ZM418.594 364.929L450.615 379.388C444.05 381.315 439.276 385.703 436.232 392.547L418.594 364.929ZM434.362 402.353C428.444 400.982 423.668 400.638 420.021 401.356C414.597 402.397 410.332 404.821 407.309 408.571C408.832 390.688 409.582 375.126 409.538 361.974L412.641 358.521L434.003 400.5L434.362 402.353ZM446.506 367.953L448.297 372.326C434.274 368.129 423.906 364.835 417.144 362.335L413.359 357.429C422.579 356.274 433.406 353.868 445.874 350.179L450.765 351.115C446.859 356.897 445.45 362.5 446.506 367.953ZM419.376 354.382L432.544 334.903C436.112 340.488 439.1 344.285 441.359 346.321L419.376 354.382ZM445.585 338.924C442.453 335.762 440.647 332.988 440.176 330.547C439.353 326.326 441.882 319.876 447.726 311.197C451.624 305.394 455.847 299.579 460.332 293.668C460.647 301.779 464.326 309.362 471.347 316.474C478.382 323.618 485.826 327.959 493.688 329.568L453.721 342.056C451.435 343.159 448.694 342.1 445.585 338.924ZM437.709 317.847L435.535 316.388C431.891 320.268 428.25 322.515 424.626 323.224C414.326 325.229 408.374 322.003 406.721 313.512L400.732 277.918C415.438 288.888 430.341 292.929 445.465 289.988C446.068 289.868 447.826 289.188 450.75 287.997C452.571 287.65 454.071 287.35 455.3 287.118L437.709 317.847ZM411.585 353.065C412.456 351.021 411.824 342.991 409.724 328.95C415.382 332.25 421.253 333.3 427.282 332.121L429.841 330.697C424.482 341.788 420.379 349.815 417.547 354.741L408.285 360.318L407.018 358.662L408.821 358.315L405.029 358.121C395.265 349.988 387.794 343.888 382.638 339.876C391.953 339.329 399.241 334.771 404.471 326.191C408.047 338.065 410.409 347.032 411.585 353.065ZM401.221 357.918L377.085 359.771C379.897 354.868 381.135 349.891 380.8 344.962L401.221 357.918ZM403.412 359.365L406.665 361.585L381.115 385.397C380.079 376.785 376.662 370.544 370.882 366.641L374.156 364.126C382.279 363.809 391.994 362.218 403.412 359.365ZM408.824 363.044L401.885 404.865C397.588 395.679 390.306 392.059 379.974 394.062L408.824 363.044ZM405.6 421.591C406.612 412.294 411.053 406.885 418.921 405.35C426.791 403.826 433.312 406.647 438.479 413.762L441.006 412.356L455.906 440.553C447.344 435.306 437.626 433.738 426.718 435.859C417.668 437.621 409.979 441.615 403.635 447.891C403.944 439.682 404.585 430.918 405.6 421.591ZM440.521 400.197C440.947 392.588 445.347 387.976 453.844 386.318C457 386.318 459.897 386.688 462.553 387.429L462.929 384.553L486.624 395.012C480.076 396.924 473.971 401.853 468.318 409.879C462.659 417.9 459.865 425.338 459.941 432.212L440.521 400.197ZM486.597 317.303C476.744 312.015 470.85 304.194 468.844 293.909C467.432 286.615 469.782 277.697 475.888 267.1C481.256 259.135 486.571 250.862 491.803 242.332C491.747 248.621 492.153 253.879 492.979 258.124C498.744 287.776 514.35 306.729 539.829 314.953L517.659 322.079L517.297 320.268C506.653 323.597 496.421 322.612 486.597 317.303ZM467.526 267.765L464.435 266.5C461.629 274.562 454.779 279.682 443.885 281.791C416.659 287.094 400.265 275.503 394.738 247.076L391.591 226.032C410.694 246.774 436.006 254.144 467.476 248.026C469.268 247.668 474.244 245.753 482.365 242.303L467.526 267.765ZM391.697 274.985L393.326 273.729L400.918 312.771L398.206 313.294C398.865 323.209 394.365 329.1 384.688 330.982C380.453 331.809 376.209 331.082 372.006 328.738L370.526 330.906L337.129 304.432C342.429 305.912 348.415 306.035 355.068 304.738C373.238 301.215 385.435 291.274 391.697 274.985ZM340.324 316.065C353.459 325.409 363.271 332.326 369.806 336.709L372.997 343.612C373.585 346.65 372.882 350.232 370.859 354.391C368.841 358.565 366.626 360.856 364.212 361.326L316.118 365.979C324.126 361.915 330.732 354.829 336.009 344.718C341.265 334.582 342.682 325.015 340.324 316.065ZM371.418 403.282L373.418 403.844C375.476 401.562 378.012 400.106 381.038 399.526C389.506 397.874 396.135 401.297 400.971 409.8L395.056 457.065C394.515 447.785 389.282 439.529 379.426 432.341C369.55 425.159 360.432 422.676 352.085 424.941L350.25 425.288L371.418 403.282ZM402.885 453.694C410.191 445.974 417.744 441.347 425.624 439.815C441.371 436.756 455.238 443.515 467.232 460.024C468.918 462.191 477.171 477.244 492.044 505.103C475.374 493.891 457.694 490.138 438.938 493.782C421.388 497.188 406.956 505.329 395.644 518.191C398.938 489.944 401.365 468.462 402.885 453.694ZM466.606 442.215C464.847 433.174 466.856 424.147 472.665 415.141C478.465 406.191 485.888 400.809 494.95 399.047C496.888 399.318 498.168 399.35 498.747 399.238C525.303 409.75 545.085 417.885 558.109 423.515C539.832 426.421 524.768 433.791 512.926 445.471C501.079 457.206 494.735 472.268 493.909 490.635C475.476 457.147 466.376 441.038 466.606 442.215ZM495.168 220.941C486.532 231.424 474.962 238.097 460.426 240.918C444.097 244.097 428.332 241.35 413.121 232.644C397.932 224.003 388.759 211.494 385.591 195.165L379.221 162.465C405.165 195.75 439.935 208.118 483.497 199.647C495.003 197.403 506.091 193.082 516.768 186.603C502.856 208.782 495.656 220.247 495.168 220.941ZM383.238 226.726L388.168 252.106L386.374 252.456C389.147 276.415 378.106 290.803 353.288 295.629C341.185 297.985 331.985 295.732 325.594 288.774L321.753 293.279L300.815 277.606C310.247 277.638 317.682 277.15 323.129 276.091C353.385 270.203 373.45 253.726 383.238 226.726ZM363.397 243.279C351.215 256.647 336.991 264.918 320.644 268.097C306.132 270.915 293.582 269.544 283.121 264.071C281.803 263.7 271.547 256.279 252.397 241.788C264.241 244.521 276.797 244.562 290.135 241.971C333.088 233.612 359.832 208.018 370.347 165.159L377.229 200.574C380.168 215.679 375.544 229.935 363.397 243.279ZM278.441 496.735C287.912 487.341 296.585 481.871 304.45 480.344C321.4 477.05 337.324 480.544 352.182 490.879C367.053 501.168 376.197 515.071 379.606 532.635C379.965 534.447 380.129 537.709 380.115 542.418C380.094 547.162 380.224 550.421 380.582 552.253L380.762 553.126L383.338 546.971L378.579 590.297C374.476 562.821 361.871 542.353 340.741 528.871C319.591 515.4 295.109 511.365 267.253 516.774C262.418 517.709 258.891 519.038 256.709 520.738C263.897 512.429 271.126 504.441 278.441 496.735ZM382.45 542.447C382.968 538.571 382.806 534.526 381.976 530.262C378.344 511.553 368.718 496.779 353.126 485.965C337.515 475.212 320.012 471.662 300.653 475.418C324.738 450.676 338.888 436.306 343.153 432.3L350.244 429.997C359.909 428.129 368.912 429.997 377.229 435.597C385.547 441.218 390.629 448.826 392.512 458.532C393.462 463.376 392.574 477.376 389.847 500.506C387.118 523.609 384.674 537.629 382.45 542.447ZM394.888 523.994C404.774 510.179 419.062 501.418 437.832 497.768C466.876 492.115 488.832 501.676 503.703 526.418L504.618 526.235L533.518 578.097C506.926 551.218 476.415 541.115 441.929 547.826C419.512 552.176 401.824 564.444 388.774 584.553C391.665 557.6 393.756 537.421 394.888 523.994ZM530.753 554.126L499.853 501.694C497.865 485.156 501.844 470.1 511.776 456.541C521.685 442.979 534.838 434.609 551.185 431.429C564.471 428.838 587.568 434.426 620.379 448.121C593.247 454.026 571.609 466.262 555.444 484.806C539.268 503.338 531.038 526.441 530.753 554.126ZM576.45 420.865C559.438 411 549.138 396.671 545.491 377.912C539.138 345.224 550.676 323.871 580.085 313.706L580.671 311.762L623.353 298.709C599.388 324.103 590.706 353.759 597.291 387.626C601.524 409.415 611.662 427.579 627.691 442.018C596.397 429.888 579.344 422.859 576.45 420.865ZM571.553 114.721C567.256 131.253 566.832 148.618 570.365 166.776C575.662 194.009 588.176 217.153 607.9 236.247C627.644 255.332 650.926 267.921 677.879 273.976L643.735 282.518C619.541 287.221 597.124 282.482 576.444 268.282C555.794 254.068 543.126 234.865 538.415 210.679C536.885 202.788 536.841 192.268 538.382 179.091C539.909 165.944 543.229 157.915 548.303 155.026L547.224 154.303L571.553 114.721ZM429.871 141.8C455.4 150.338 481.147 152.076 507.188 147.015C523.538 143.835 538.153 138.482 551.138 130.912L539.629 149.197L538.726 149.374C529.774 171.212 510.8 184.929 481.744 190.579C458.121 195.174 435.115 191.482 412.694 179.506C390.265 167.562 376.762 149.753 372.165 126.159L366.7 98.0294C383.274 118.688 404.324 133.268 429.871 141.8ZM247.559 197.485C276.003 191.962 300.603 177.953 321.329 155.359C342.044 132.8 353.097 107.235 354.456 78.7147L364.7 131.412C368.447 153.891 362.318 175.497 346.241 196.212C330.141 216.918 310.632 229.506 287.638 233.979C263.424 238.679 242.65 233.609 225.341 218.782L223.685 220.047L189.726 195.518C210.121 200.403 229.421 201.021 247.559 197.485ZM185.565 326.812C200.371 297.926 204.862 268.606 199.106 238.968C196.862 227.474 192.779 216.018 186.785 204.635C200.497 213.856 213.985 223.474 227.256 233.491C240.224 245.403 248.312 259.532 251.494 275.871C256.074 299.447 251.826 321.188 238.721 341.012C225.624 360.844 207.594 372.982 184.588 377.456C178.55 378.632 174.224 379.144 171.709 379.012L171.306 381.894L121.6 387.797C149.465 376.106 170.785 355.776 185.565 326.812ZM202.632 494.479C192.626 443.074 165.241 410.409 120.465 396.497C151.903 390.379 176.462 387.471 194.129 387.812C208.129 388.879 221.212 396.224 233.294 409.926C245.359 423.568 252.859 437.953 255.812 453.082C260.632 477.906 256.421 499.735 243.115 518.638C240.315 523.612 224.685 540.144 196.241 568.288C205.344 543.894 207.453 519.312 202.632 494.479ZM367.529 688.556C367.785 683.468 365.982 675.629 362.044 665.112C352.015 636.274 333.062 613.756 305.082 597.544C277.118 581.285 248.026 576.118 217.759 582.012C206.265 584.241 194.271 588.785 181.771 595.597C195.774 580.324 209.791 565.332 223.906 550.653C242.515 533.268 259.356 523.044 274.5 520.103C299.885 515.159 322.165 519.768 341.268 533.95C360.347 548.171 372.279 567.65 377.115 592.479C377.924 596.721 374.744 628.732 367.529 688.556ZM577.203 652.5C545.321 624.147 508.485 614.026 466.726 622.135C423.768 630.497 393.35 654.938 375.485 695.456C380.8 648.603 384.988 613.541 387.991 590.362C401.532 569.509 419.191 556.959 440.994 552.709C483.324 544.479 517.515 560.462 543.562 600.597L546.1 599.156L577.203 652.5ZM681.429 490.935C646.941 497.626 620.129 515.535 601.006 544.694C581.856 573.847 574.721 605.853 579.615 640.712L536.862 566.121C534.435 540.838 540.582 517.506 555.285 496.135C569.976 474.744 589.7 461.65 614.509 456.832C624.809 454.826 632.603 454.541 637.929 456.035C645.776 457.659 659.603 462.632 679.447 471.05C699.282 479.429 711.803 485.641 716.991 489.674C704.176 488.365 692.335 488.812 681.429 490.935Z" fill="white"/>
</svg>